<svg width="20" height="20" viewBox="0 0 20 20" fill="none" xmlns="http://www.w3.org/2000/svg">
  <path d="M8.75 15.5C5.03 15.5 2 12.47 2 8.75C2 5.03 5.03 2 8.75 2C12.47 2 15.5 5.03 15.5 8.75C15.5 10.35 14.94 11.82 14.01 12.98L17.53 16.47C17.82 16.76 17.82 17.24 17.53 17.53C17.24 17.82 16.76 17.82 16.47 17.53L12.98 14.01C11.82 14.94 10.35 15.5 8.75 15.5ZM8.75 14C11.65 14 14 11.65 14 8.75C14 5.85 11.65 3.5 8.75 3.5C5.85 3.5 3.5 5.85 3.5 8.75C3.5 11.65 5.85 14 8.75 14Z" fill="black"></path>
</svg>